# xmcd CD database file
#
# Track frame offsets:
#	150
#	20909
#	43187
#	69360
#	86167
#	119041
#	144961
#	166874
#	200323
#	228786
#	252450
#
# Disc length: 3555 seconds
#
# Revision: 0
# Processed by: cddbd v1.5.2PL0 Copyright (c) Steve Scherf et al.
# Submitted via: CDex 1.70beta2
#
DISCID=980de10b
DTITLE=Franco Cerri with Enrico Intra - jazzitaliano live 2007
DYEAR=2007
DGENRE=Jazz
TTITLE0=Per Enrico
TTITLE1=Rondo'
TTITLE2=Copacabana
TTITLE3=Intramood
TTITLE4=My funny Valentine
TTITLE5=One more twelve bars
TTITLE6=Take the "A" train
TTITLE7=Affinche'
TTITLE8=Per una serenata
TTITLE9=Autumn leaves
TTITLE10=Nuages
EXTD=YEAR: 2007
EXTT0=
EXTT1=
EXTT2=
EXTT3=
EXTT4=
EXTT5=
EXTT6=
EXTT7=
EXTT8=
EXTT9=
EXTT10=
PLAYORDER=
